<svg width="310" height="279" viewBox="0 0 310 279" fill="none" xmlns="http://www.w3.org/2000/svg">
<path d="M78.5281 36H109.928C133.328 36 144.328 47.8 144.328 70.2C144.328 85 138.128 97.2 126.728 102C140.528 106 148.328 116.4 148.328 136.4C148.328 164.4 134.928 176 108.928 176H78.5281V36ZM96.5281 52V96H107.328C120.728 96 126.528 88.4 126.528 73.4C126.528 58.6 120.928 52 106.728 52H96.5281ZM96.5281 111.6V160H106.728C124.528 160 130.528 153.6 130.528 135.8C130.528 118.2 124.128 111.6 107.528 111.6H96.5281ZM167.2 36H198.6C222 36 233 47.8 233 70.2C233 85 226.8 97.2 215.4 102C229.2 106 237 116.4 237 136.4C237 164.4 223.6 176 197.6 176H167.2V36ZM185.2 52V96H196C209.4 96 215.2 88.4 215.2 73.4C215.2 58.6 209.6 52 195.4 52H185.2ZM185.2 111.6V160H195.4C213.2 160 219.2 153.6 219.2 135.8C219.2 118.2 212.8 111.6 196.2 111.6H185.2Z" fill="url(#paint0_linear_16_2448)"/>
<path d="M4.85945 207.4H13.5635C22.1995 207.4 25.3275 211.82 25.3275 219.028C25.3275 224.128 23.3555 228.548 18.5955 230.18C23.6275 231.268 26.6875 234.804 26.6875 241.944C26.6875 251.464 22.2675 255 13.2235 255H4.85945V207.4ZM7.98745 210.256V229.024H13.5635C19.8195 229.024 22.1315 225.284 22.1315 219.436C22.1315 213.316 19.6835 210.256 13.0195 210.256H7.98745ZM7.98745 231.88V252.144H12.8835C20.9075 252.144 23.4915 248.948 23.4915 241.808C23.4915 234.804 20.5675 231.88 13.4275 231.88H7.98745ZM45.9782 206.652C54.7502 206.652 58.4222 211.004 58.4222 220.524V241.876C58.4222 251.328 54.7502 255.748 45.9782 255.748C37.1382 255.748 33.5342 251.328 33.5342 241.876V220.524C33.5342 211.004 37.1382 206.652 45.9782 206.652ZM45.9782 209.576C38.7702 209.576 36.6622 213.18 36.6622 220.388V241.944C36.6622 249.22 38.7702 252.824 45.9782 252.824C53.1182 252.824 55.2262 249.22 55.2262 241.944V220.388C55.2262 213.18 53.1182 209.576 45.9782 209.576ZM78.5173 206.652C87.2893 206.652 90.9613 211.004 90.9613 220.524V241.876C90.9613 251.328 87.2893 255.748 78.5173 255.748C69.6773 255.748 66.0733 251.328 66.0733 241.876V220.524C66.0733 211.004 69.6773 206.652 78.5173 206.652ZM78.5173 209.576C71.3093 209.576 69.2013 213.18 69.2013 220.388V241.944C69.2013 249.22 71.3093 252.824 78.5173 252.824C85.6573 252.824 87.7653 249.22 87.7653 241.944V220.388C87.7653 213.18 85.6573 209.576 78.5173 209.576ZM99.0883 207.4H102.284V229.432H108.404L118.4 207.4H122.004L111.94 228.752C111.6 229.5 111.056 230.248 110.444 230.724C110.988 231.064 111.668 232.016 112.008 232.764L122.14 255H118.536L108.404 232.356H102.284V255H99.0883V207.4ZM140.727 207.4H149.431C158.067 207.4 161.195 211.82 161.195 219.028C161.195 224.128 159.223 228.548 154.463 230.18C159.495 231.268 162.555 234.804 162.555 241.944C162.555 251.464 158.135 255 149.091 255H140.727V207.4ZM143.855 210.256V229.024H149.431C155.687 229.024 157.999 225.284 157.999 219.436C157.999 213.316 155.551 210.256 148.887 210.256H143.855ZM143.855 231.88V252.144H148.751C156.775 252.144 159.359 248.948 159.359 241.808C159.359 234.804 156.435 231.88 149.295 231.88H143.855ZM189.393 210.324H173.073V228.072H188.645V230.928H173.073V252.076H189.393V255H169.945V207.4H189.393V210.324ZM193.737 255L203.801 207.4H209.785L219.781 255H216.449L213.729 241.672H199.789L197.069 255H193.737ZM213.253 238.884L207.337 210.46H206.249L200.197 238.884H213.253ZM225.926 207.4H229.054V241.4C229.054 249.356 231.502 252.756 237.894 252.756C244.218 252.756 246.666 249.356 246.666 241.4V207.4H249.862V241.536C249.862 250.444 246.87 255.748 237.894 255.748C228.918 255.748 225.926 250.444 225.926 241.536V207.4ZM255.196 210.46V207.4H277.772V210.46H268.048V255H264.852V210.46H255.196ZM280.466 207.4H283.934L293.794 232.832L303.654 207.4H307.19L295.358 236.504V255H292.23V236.504L280.466 207.4Z" fill="url(#paint1_linear_16_2448)"/>
<defs>
<linearGradient id="paint0_linear_16_2448" x1="59.9157" y1="277.397" x2="437.917" y2="-72.7719" gradientUnits="userSpaceOnUse">
<stop offset="0.0752367" stop-color="#EBDDD3"/>
<stop offset="0.352736" stop-color="#FFACAD"/>
<stop offset="0.638431" stop-color="#8C67F9"/>
</linearGradient>
<linearGradient id="paint1_linear_16_2448" x1="26.6114" y1="291.837" x2="69.2672" y2="84.1675" gradientUnits="userSpaceOnUse">
<stop stop-color="#EBDDD3"/>
<stop offset="0.401813" stop-color="#FFACAD"/>
<stop offset="0.638431" stop-color="#8C67F9"/>
</linearGradient>
</defs>
</svg>
